<svg width="14" height="14" viewBox="0 0 14 14" fill="none" xmlns="http://www.w3.org/2000/svg">
<path d="M9.91667 11.2117H2.91667V4.08335H7V2.91669H2.91667C2.275 2.91669 1.75 3.44169 1.75 4.08335V11.0834C1.75 11.725 2.275 12.25 2.91667 12.25H9.91667C10.5583 12.25 11.0833 11.725 11.0833 11.0834V7.00002H9.91667V11.2117Z" fill="#24292F" fill-opacity="0.7"/>
<path d="M11.0833 1.16669H9.91666V2.91669H8.16666C8.17249 2.92252 8.16666 4.08335 8.16666 4.08335H9.91666V5.82752C9.92249 5.83335 11.0833 5.82752 11.0833 5.82752V4.08335H12.8333V2.91669H11.0833V1.16669Z" fill="#24292F" fill-opacity="0.7"/>
<path d="M8.75001 5.25H4.08334V6.41667H8.75001V5.25Z" fill="#24292F" fill-opacity="0.7"/>
<path d="M4.08334 7V8.16667H8.75001V7H7.00001H4.08334Z" fill="#24292F" fill-opacity="0.7"/>
<path d="M8.75001 8.75H4.08334V9.91667H8.75001V8.75Z" fill="#24292F" fill-opacity="0.7"/>
</svg>
