<svg width="20" height="20" viewBox="0 0 20 20" fill="none" xmlns="http://www.w3.org/2000/svg">
<path d="M18.2331 14.8793C18.1537 14.4552 17.7455 14.1758 17.3213 14.2553C16.8973 14.3348 16.6178 14.743 16.6973 15.1671C16.7563 15.4817 16.618 15.7059 16.5303 15.8116C16.4429 15.917 16.2485 16.0938 15.9295 16.0938H4.07047C3.75152 16.0938 3.55715 15.917 3.46969 15.8116C3.38203 15.7059 3.24371 15.4817 3.3027 15.1671C3.5243 13.9846 3.96895 13.2068 4.39895 12.4546C4.92117 11.5412 5.46117 10.5966 5.46117 9.14059V7.96871C5.46117 5.50516 7.46363 3.47371 9.92609 3.43797H10.0738C12.5279 3.47363 14.5237 5.50508 14.5237 7.96875V9.14062C14.5237 10.3798 14.9291 11.2325 15.309 11.9345C15.4504 12.1957 15.7192 12.344 15.9968 12.344C16.1223 12.344 16.2498 12.3137 16.3679 12.2497C16.7474 12.0443 16.8885 11.5702 16.6831 11.1908C16.3051 10.4923 16.0862 9.93285 16.0862 9.14062V7.96875C16.0862 6.3609 15.4634 4.8423 14.3325 3.69273C13.3634 2.70754 12.119 2.09273 10.7737 1.92305V0.78125C10.7737 0.349766 10.4239 0 9.99246 0C9.56098 0 9.21121 0.349766 9.21121 0.78125V1.92535C6.22457 2.31285 3.89871 4.88988 3.89871 7.96875V9.14062C3.89871 10.1815 3.52086 10.8424 3.0425 11.6791C2.57125 12.5035 2.03707 13.4379 1.76692 14.8793C1.63797 15.5674 1.82039 16.2709 2.26742 16.8095C2.71402 17.3477 3.37125 17.6562 4.07047 17.6562H7.66379C7.66379 18.9486 8.71519 20 10.0075 20C11.2999 20 12.3513 18.9486 12.3513 17.6562H15.9295C16.6287 17.6562 17.286 17.3477 17.7326 16.8095C18.1796 16.271 18.362 15.5674 18.2331 14.8793ZM10.0075 18.4375C9.57676 18.4375 9.22629 18.087 9.22629 17.6562H10.7888C10.7888 18.087 10.4384 18.4375 10.0075 18.4375Z" fill="white"/>
</svg>
