<svg width="20" height="20" viewBox="0 0 20 20" fill="none" xmlns="http://www.w3.org/2000/svg">
<g clip-path="url(#clip0)">
<path d="M18.6363 8.18182H11.8181V1.36364C11.8181 0.610906 11.2072 0 10.4545 0H9.54545C8.79272 0 8.18182 0.610906 8.18182 1.36364V8.18182H1.36364C0.610906 8.18182 0 8.79272 0 9.54545V10.4545C0 11.2072 0.610906 11.8181 1.36364 11.8181H8.18182V18.6363C8.18182 19.389 8.79272 19.9999 9.54545 19.9999H10.4545C11.2072 19.9999 11.8181 19.389 11.8181 18.6363V11.8181H18.6363C19.389 11.8181 19.9999 11.2072 19.9999 10.4545V9.54545C19.9999 8.79272 19.389 8.18182 18.6363 8.18182Z" fill="white"/>
<path d="M11.3181 8.18182V8.68182H11.8181H18.6363C19.1129 8.68182 19.4999 9.06887 19.4999 9.54545V10.4545C19.4999 10.9311 19.1129 11.3181 18.6363 11.3181H11.8181H11.3181V11.8181V18.6363C11.3181 19.1129 10.9311 19.4999 10.4545 19.4999H9.54545C9.06887 19.4999 8.68182 19.1129 8.68182 18.6363V11.8181V11.3181H8.18182H1.36364C0.887049 11.3181 0.5 10.9311 0.5 10.4545V9.54545C0.5 9.06887 0.887049 8.68182 1.36364 8.68182H8.18182H8.68182V8.18182V1.36364C8.68182 0.887049 9.06887 0.5 9.54545 0.5H10.4545C10.9311 0.5 11.3181 0.887049 11.3181 1.36364V8.18182Z" stroke="white" stroke-opacity="0.1"/>
</g>
<defs>
<clipPath id="clip0">
<rect width="20" height="20" fill="white"/>
</clipPath>
</defs>
</svg>
