<svg width="20" height="20" viewBox="0 0 20 20" fill="none" xmlns="http://www.w3.org/2000/svg">
<path d="M15 6.66668H14.1667V5.00001C14.1667 2.70001 12.3 0.833344 10 0.833344C7.70001 0.833344 5.83334 2.70001 5.83334 5.00001V6.66668H5.00001C4.08334 6.66668 3.33334 7.41668 3.33334 8.33334V16.6667C3.33334 17.5833 4.08334 18.3333 5.00001 18.3333H15C15.9167 18.3333 16.6667 17.5833 16.6667 16.6667V8.33334C16.6667 7.41668 15.9167 6.66668 15 6.66668ZM7.50001 5.00001C7.50001 3.61668 8.61668 2.50001 10 2.50001C11.3833 2.50001 12.5 3.61668 12.5 5.00001V6.66668H7.50001V5.00001ZM15 16.6667H5.00001V8.33334H15V16.6667ZM10 14.1667C10.9167 14.1667 11.6667 13.4167 11.6667 12.5C11.6667 11.5833 10.9167 10.8333 10 10.8333C9.08334 10.8333 8.33334 11.5833 8.33334 12.5C8.33334 13.4167 9.08334 14.1667 10 14.1667Z" fill="#EF3A3A"/>
</svg>
