<svg width="20" height="20" viewBox="0 0 20 20" fill="none" xmlns="http://www.w3.org/2000/svg">
<path d="M9.99999 1.66666C5.39999 1.66666 1.66666 5.39999 1.66666 9.99999C1.66666 14.6 5.39999 18.3333 9.99999 18.3333C14.6 18.3333 18.3333 14.6 18.3333 9.99999C18.3333 5.39999 14.6 1.66666 9.99999 1.66666ZM3.33332 9.99999C3.33332 9.49166 3.39999 8.99166 3.50832 8.51666L7.49166 12.5V13.3333C7.49166 14.25 8.24166 15 9.15832 15V16.6083C5.88332 16.1917 3.33332 13.3917 3.33332 9.99999ZM14.9083 14.5C14.6917 13.825 14.075 13.3333 13.325 13.3333H12.4917V10.8333C12.4917 10.375 12.1167 9.99999 11.6583 9.99999H6.65832V8.33332H8.32499C8.78332 8.33332 9.15832 7.95832 9.15832 7.49999V5.83332H10.825C11.7417 5.83332 12.4917 5.08332 12.4917 4.16666V3.82499C14.9333 4.80832 16.6667 7.20832 16.6667 9.99999C16.6667 11.7333 15.9917 13.3167 14.9083 14.5Z" fill="#03A74E"/>
</svg>
