<svg width="455" height="455" viewBox="0 0 455 455" fill="none" xmlns="http://www.w3.org/2000/svg">
<path d="M326.632 10.3459C287.899 10.3459 251.641 27.8829 227.5 57.2659C203.359 27.8819 167.102 10.3459 128.368 10.3459C57.586 10.3459 0 67.931 0 138.714C0 194.14 33.05 258.249 98.23 329.26C148.391 383.907 202.958 426.219 218.487 437.886L227.497 444.655L236.507 437.887C252.036 426.22 306.605 383.909 356.767 329.262C421.949 258.251 455 194.141 455 138.714C455 67.931 397.414 10.3459 326.632 10.3459ZM334.666 308.974C293.407 353.922 249.018 390.257 227.497 407.003C205.977 390.257 161.59 353.921 120.331 308.973C61.236 244.592 30 185.717 30 138.714C30 84.474 74.128 40.3459 128.368 40.3459C164.062 40.3459 197.02 59.7999 214.381 91.1169L227.5 114.783L240.619 91.1169C257.979 59.8009 290.937 40.3459 326.632 40.3459C380.872 40.3459 425 84.473 425 138.714C425 185.719 393.763 244.594 334.666 308.974Z" fill="#007EF2"/>
</svg>
