<svg width="435" height="435" viewBox="0 0 435 435" fill="none" xmlns="http://www.w3.org/2000/svg">
<path d="M171.009 305.078C171.009 305.078 183.859 297.738 183.869 297.734C185.707 296.743 188.041 296.616 189.976 297.734L202.681 305.078V288.012H171.01V305.078H171.009Z" fill="#73D0F4"/>
<path d="M294.786 143.371C291.012 143.371 287.942 140.458 287.942 136.878V131.913C287.942 128.333 291.012 125.419 294.786 125.419C298.109 125.419 300.803 122.863 300.803 119.71C300.803 116.556 298.109 114 294.786 114C294.785 114 294.785 114 294.785 114H294.785H153.734C142.853 114 134 122.4 134 132.725V269.286C134 279.611 142.852 288.012 153.734 288.012H158.975V315.241C158.975 317.305 160.149 319.209 162.045 320.219C162.961 320.707 163.977 320.951 164.992 320.951C166.077 320.951 167.162 320.672 168.122 320.117L186.831 309.288L205.567 320.117C206.527 320.672 207.612 320.951 208.697 320.951C209.712 320.951 210.728 320.707 211.644 320.219C213.541 319.209 214.714 317.305 214.714 315.241V288.012H294.784C298.108 288.012 300.801 285.455 300.801 282.302V149.09C300.801 149.087 300.802 149.084 300.802 149.081C300.803 145.928 298.109 143.371 294.786 143.371ZM146.034 132.725C146.034 128.697 149.489 125.419 153.734 125.419H277.197C276.368 127.434 275.908 129.623 275.908 131.913V136.878C275.908 139.168 276.368 141.357 277.197 143.371H265.463H146.034V132.725ZM202.68 305.078L189.975 297.734C188.041 296.616 185.706 296.743 183.868 297.734C183.858 297.738 171.008 305.078 171.008 305.078V288.012H202.68V305.078H202.68ZM288.768 276.593H153.734C149.489 276.593 146.035 273.315 146.035 269.287V162.097V154.791H265.463H288.768V276.593H288.768Z" fill="#3D6889"/>
</svg>
