<svg width="114" height="114" viewBox="0 0 114 114" fill="none" xmlns="http://www.w3.org/2000/svg">
<g clip-path="url(#clip0_126_11)">
<path d="M33.0332 29.3106C33.3858 29.3068 33.7342 29.2332 34.0583 29.0941C34.3823 28.955 34.6757 28.7532 34.9213 28.5001L54.328 9.12015V81.047C54.328 81.7556 54.6095 82.4352 55.1106 82.9363C55.6117 83.4374 56.2913 83.7189 56.9999 83.7189C57.7085 83.7189 58.3881 83.4374 58.8892 82.9363C59.3903 82.4352 59.6718 81.7556 59.6718 81.047V9.12015L79.0785 28.5001C79.5925 28.9001 80.235 29.0986 80.8851 29.0582C81.5352 29.0178 82.1481 28.7413 82.6087 28.2808C83.0692 27.8202 83.3457 27.2073 83.3861 26.5572C83.4265 25.9071 83.228 25.2647 82.828 24.7506L58.888 0.783897C58.7631 0.657751 58.6258 0.544378 58.4783 0.445459L58.2735 0.338584C58.1899 0.289398 58.1037 0.244801 58.0152 0.204991C57.9249 0.170325 57.8327 0.140594 57.7391 0.115928L57.5254 0.0535844C57.1785 -0.0159897 56.8213 -0.0159897 56.4744 0.0535844L56.2518 0.124834C56.1582 0.149379 56.066 0.179113 55.9757 0.213897C55.8872 0.253707 55.801 0.298304 55.7174 0.347491L55.5215 0.445459C55.374 0.544378 55.2368 0.657751 55.1118 0.783897L31.1718 24.7506C30.7986 25.1243 30.5445 25.6001 30.4416 26.1181C30.3387 26.6361 30.3916 27.173 30.5936 27.6609C30.7957 28.1488 31.1378 28.566 31.5767 28.8596C32.0157 29.1532 32.5318 29.3102 33.0599 29.3106H33.0332Z" fill="#2F353D"/>
<path d="M111.328 78.375C110.619 78.375 109.94 78.6565 109.439 79.1576C108.938 79.6586 108.656 80.3382 108.656 81.0469V100.641C108.656 102.767 107.812 104.805 106.309 106.309C104.805 107.812 102.767 108.656 100.641 108.656H13.3594C11.2335 108.656 9.19469 107.812 7.69147 106.309C6.18825 104.805 5.34375 102.767 5.34375 100.641V81.0469C5.34375 80.3382 5.06225 79.6586 4.56118 79.1576C4.0601 78.6565 3.3805 78.375 2.67188 78.375C1.96325 78.375 1.28365 78.6565 0.782574 79.1576C0.2815 79.6586 0 80.3382 0 81.0469L0 100.641C0 104.184 1.4075 107.582 3.91287 110.087C6.41824 112.593 9.81625 114 13.3594 114H100.641C104.184 114 107.582 112.593 110.087 110.087C112.592 107.582 114 104.184 114 100.641V81.0469C114 80.3382 113.718 79.6586 113.217 79.1576C112.716 78.6565 112.037 78.375 111.328 78.375Z" fill="#2F353D"/>
</g>
<defs>
<clipPath id="clip0_126_11">
<rect width="114" height="114" fill="white"/>
</clipPath>
</defs>
</svg>
